<svg xmlns="http://www.w3.org/2000/svg" width="48" height="30" viewBox="0 0 48 30" role="img" aria-label="AWS">
  <rect width="48" height="30" rx="4" fill="#232f3e"/>
  <path fill="#fff" d="M13.2 17.6h-2.1l-.5-1.7H7.8l-.5 1.7h-2l2.9-9.1h2.1l2.9 9.1Zm-3-3.3-.9-3.3h-.1l-.9 3.3h1.9Zm10.7.9c0 .8-.3 1.4-.9 1.8-.6.5-1.5.7-2.6.7-.7 0-1.3-.1-1.9-.2-.6-.1-1.1-.3-1.5-.6v-1.9c.5.3 1.1.6 1.7.8.6.2 1.2.3 1.8.3.5 0 .9-.1 1.1-.2.2-.2.3-.4.3-.6 0-.2-.1-.4-.2-.5-.1-.2-.4-.3-.7-.5-.3-.2-.8-.4-1.4-.6-.6-.2-1.1-.5-1.4-.8-.4-.3-.6-.6-.8-1-.2-.4-.3-.8-.3-1.3 0-.8.3-1.4 1-1.8.6-.4 1.5-.6 2.5-.6.6 0 1.2.1 1.7.2.5.1 1.1.3 1.7.6l-.7 1.6c-.5-.2-.9-.4-1.4-.5-.4-.1-.8-.2-1.2-.2s-.7.1-.9.2c-.2.1-.3.3-.3.5s.1.4.2.5c.1.1.4.3.7.5.3.2.8.4 1.4.6.6.2 1 .5 1.4.7.4.3.7.6.9.9.2.4.3.8.3 1.3Zm13.2 2.4h-2.3l-1.2-4.7c0-.2-.1-.4-.2-.7-.1-.3-.1-.6-.2-.9-.1-.3-.1-.6-.1-.8 0 .2-.1.5-.1.8-.1.3-.1.6-.2.9-.1.3-.1.5-.2.7l-1.2 4.7h-2.3l-2.3-9.1h1.9l1.1 5c.1.3.1.6.2 1 .1.4.1.7.2 1 .1-.4.1-.7.2-1.1.1-.4.2-.7.2-1l1.3-4.9h1.9l1.3 4.9c.1.3.1.6.2 1 .1.4.2.7.2 1.1.1-.3.1-.7.2-1 .1-.4.1-.7.2-1l1.1-5h1.9l-2.4 9.1Z"/>
  <path fill="#ff9900" d="M37.8 22.3c-6.7 3.2-14.9 3.1-21.1.2-.4-.2-.1-.8.3-.6 6.7 2.5 13.8 2.6 20.4-.3.6-.3 1 .4.4.7Zm1.6-1.8c-.5-.6-3.4-.3-4.6-.2-.4 0-.5-.3-.1-.6 2.3-1.6 6-.9 6.4-.5.4.5-.1 3.8-2.3 5.6-.3.3-.7.1-.5-.2.6-1.2 1.6-3.5 1.1-4.1Z"/>
</svg>
